<svg width="321" height="315" fill="none" xmlns="http://www.w3.org/2000/svg"><g filter="url(#filter0_f_277_5)"><path fill-rule="evenodd" clip-rule="evenodd" d="M34.005 158c1.593 68.754 57.827 124 126.965 124 69.137 0 125.371-55.246 126.965-124h19.005c-1.598 79.249-66.339 143-145.97 143S16.597 237.249 15 158h19.005z" fill="#fff" fill-opacity=".28"/></g><g filter="url(#filter1_f_277_5)"><path fill-rule="evenodd" clip-rule="evenodd" d="M286.935 157C285.341 88.246 229.107 33 159.97 33 90.832 33 34.598 88.246 33.005 157H14C15.597 77.751 80.339 14 159.97 14s144.372 63.751 145.97 143h-19.005z" fill="#fff" fill-opacity=".28"/></g><defs><filter id="filter0_f_277_5" x="1" y="144" width="319.94" height="171" filterUnits="userSpaceOnUse" color-interpolation-filters="sRGB"><feFlood flood-opacity="0" result="BackgroundImageFix"/><feBlend in="SourceGraphic" in2="BackgroundImageFix" result="shape"/><feGaussianBlur stdDeviation="7" result="effect1_foregroundBlur_277_5"/></filter><filter id="filter1_f_277_5" x="0" y="0" width="319.94" height="171" filterUnits="userSpaceOnUse" color-interpolation-filters="sRGB"><feFlood flood-opacity="0" result="BackgroundImageFix"/><feBlend in="SourceGraphic" in2="BackgroundImageFix" result="shape"/><feGaussianBlur stdDeviation="7" result="effect1_foregroundBlur_277_5"/></filter></defs></svg>