<svg width="185" height="188" viewBox="0 0 185 188" fill="none" xmlns="http://www.w3.org/2000/svg">
<path d="M137.344 48.2288C162.111 73.2934 162.111 113.931 137.344 138.996C112.577 164.06 72.4225 164.06 47.6557 138.996C22.8889 113.931 22.8889 73.2934 47.6557 48.2288C72.4225 23.1642 112.577 23.1642 137.344 48.2288Z" fill="#B0EFFF" stroke="#00BDED" stroke-width="4"/>
<path d="M95.047 136.226C94.936 136.226 94.8249 136.226 94.7694 136.169L69.7278 130.944C69.5057 130.887 69.2836 130.775 69.0615 130.606C61.0104 123.807 57.3458 113.131 59.4557 102.735C61.8988 90.7099 71.8377 81.4944 83.831 79.9772L87.7178 60.8157C85.3857 59.8604 84.0531 57.3317 84.5529 54.7469L84.775 53.7916C85.0526 52.3868 85.8855 51.1506 87.0515 50.3639C88.2175 49.5772 89.6611 49.2962 91.0492 49.5772L106.818 52.8364C109.706 53.4545 111.538 56.3203 110.983 59.1861L110.76 60.1413C110.261 62.67 108.04 64.4682 105.541 64.4682H105.486L101.599 83.6297C112.038 89.8109 117.59 102.229 115.091 114.254C112.981 124.65 105.43 132.967 95.4357 136.001C95.3246 136.226 95.2136 136.226 95.047 136.226ZM70.7272 128.19L94.9915 133.247C103.82 130.438 110.427 123.02 112.315 113.861C114.592 102.735 109.261 91.2157 99.3224 85.8774C98.7672 85.5964 98.434 84.9221 98.6006 84.2478L102.987 62.67C103.154 61.8833 103.931 61.3776 104.708 61.5462L105.153 61.6585C106.43 61.9395 107.707 61.0966 107.984 59.748L108.206 58.7927C108.484 57.5003 107.651 56.2079 106.319 55.9269L90.5495 52.6678C89.9388 52.5554 89.2725 52.6678 88.7172 53.0049C88.162 53.3421 87.8288 53.904 87.6622 54.5783L87.4401 55.5336C87.1625 56.826 87.9954 58.1184 89.328 58.3994L89.7722 58.5118C90.1609 58.568 90.494 58.7927 90.7161 59.1299C90.9382 59.467 90.9937 59.8604 90.9382 60.2537L86.5518 81.8316C86.4407 82.4497 85.8855 82.9554 85.2192 83.0116C74.0587 83.9669 64.6195 92.3957 62.3985 103.522C60.5107 112.625 63.6756 122.065 70.7272 128.19Z" fill="#00BDED"/>
<path d="M120.81 75.2008C120.422 76.999 118.7 78.179 116.924 77.7857C115.147 77.3923 113.981 75.6504 114.37 73.8522C114.758 72.0541 116.479 70.874 118.256 71.2674C120.033 71.6607 121.199 73.4027 120.81 75.2008Z" fill="#00BDED"/>
<path d="M129.084 68.5702C128.806 69.9188 127.529 70.7617 126.196 70.4807C124.864 70.1998 124.031 68.9073 124.309 67.5587C124.586 66.2101 125.863 65.3672 127.196 65.6482C128.528 65.9292 129.361 67.2216 129.084 68.5702Z" fill="#00BDED"/>
<path d="M65.619 106.163C65.619 106.163 93.3813 117.907 108.54 103.915C108.762 103.747 108.928 103.522 109.15 103.353C109.15 103.353 112.593 123.751 92.2153 128.471L71.227 123.976C71.227 123.92 63.398 115.041 65.619 106.163Z" fill="#00BDED"/>
</svg>
