<svg width="168" height="168" viewBox="0 0 168 168" fill="none" xmlns="http://www.w3.org/2000/svg">
<path d="M124.586 43.4142C147.001 65.8291 147.001 102.171 124.586 124.586C102.171 147.001 65.8291 147.001 43.4142 124.586C20.9993 102.171 20.9993 65.8291 43.4142 43.4142C65.8291 20.9993 102.171 20.9993 124.586 43.4142Z" fill="#FFCAD7" stroke="#FF668A" stroke-width="4"/>
<path d="M56.3602 83.4747C54.957 83.7636 53.9251 85.0018 53.9251 86.4876C53.9251 87.1893 54.1315 87.8084 54.5442 88.3449L53.2648 95.9805C53.2235 96.3107 53.306 96.6408 53.5124 96.8885C53.7188 97.1361 54.0489 97.3012 54.3791 97.3012H59.6621C59.9923 97.3012 60.2812 97.1774 60.5288 96.9298C60.7352 96.6821 60.859 96.3519 60.7765 96.0217L59.6621 88.056C59.951 87.5608 60.1161 87.0242 60.1161 86.4876C60.1161 85.3733 59.5383 84.3827 58.6303 83.8462V79.7189L65.6054 82.7318V100.025C65.6054 102.171 67.3389 103.905 69.4851 103.905H101.265C103.412 103.905 105.145 102.171 105.145 100.025V81.7L121.654 74.4772C122.067 74.3121 122.356 73.8581 122.315 73.4041C122.315 72.9501 121.985 72.5373 121.572 72.3722L83.8482 59.495C83.6005 59.4125 83.3116 59.4125 83.1052 59.495C70.1867 64.4065 48.9724 72.1659 46.9912 72.2897C46.4547 72.2897 46.0007 72.6611 45.8769 73.1977C45.753 73.7343 46.042 74.2295 46.5372 74.4772L56.3602 78.7283V83.4747V83.4747ZM55.6999 95.0725L56.8555 88.1798C56.9381 87.7671 56.773 87.3957 56.4841 87.148C56.2777 86.9829 56.1952 86.7353 56.1952 86.4876C56.1952 86.0336 56.5666 85.6622 57.0206 85.6622C57.4746 85.6622 57.8461 86.0336 57.8461 86.4876C57.8461 86.7353 57.7223 86.9417 57.6397 87.0242C57.4333 87.2718 57.3095 87.602 57.3921 87.9322L58.3826 95.0725H55.6999ZM102.834 100.025C102.834 100.933 102.091 101.635 101.224 101.635H69.4438C68.5358 101.635 67.8342 100.892 67.8342 100.025V83.7224L83.6831 90.5737C83.8069 90.6562 83.972 90.6562 84.1371 90.6562C84.3022 90.6562 84.426 90.615 84.5911 90.5737L102.875 82.6493V100.025H102.834ZM50.4169 73.7342C58.589 71.1753 78.1525 63.7874 83.518 61.765L118.105 73.5692L84.0958 88.3037L61.6432 78.6045L80.5876 76.0868C81.413 76.5821 82.6512 76.9123 84.0958 76.9123C86.696 76.9123 88.6771 75.8805 88.6771 74.4772C88.6771 73.1152 86.696 72.042 84.0958 72.042C81.8258 72.042 80.051 72.8262 79.6383 73.8993L57.6397 76.7885L50.4169 73.7342ZM80.6289 74.4772C80.6289 73.9406 81.9909 73.1977 84.0958 73.1977C86.2007 73.1977 87.5627 73.9819 87.5627 74.4772C87.5627 75.0137 86.2007 75.7566 84.0958 75.7566C81.9909 75.7979 80.6289 75.0137 80.6289 74.4772Z" fill="#FF577F" stroke="#FF577F"/>
</svg>
