<svg width="123" height="67" viewBox="0 0 123 67" fill="none" xmlns="http://www.w3.org/2000/svg">
<path d="M72.6054 0.336533C70.171 1.42257 70.196 4.56754 72.6305 5.63095C73.9104 6.17396 74.0108 6.17396 75.2907 5.72145C77.8757 4.79379 77.9761 1.42257 75.4664 0.359158C74.3621 -0.115982 73.6343 -0.115982 72.6054 0.336533Z" fill="black"/>
<path d="M98.4803 5.74417C96.9494 7.14697 94.3142 8.73077 92.5323 9.27378C92.0304 9.43216 91.6288 9.6358 91.6539 9.70367C91.7041 9.77155 92.181 10.6313 92.7331 11.6042L93.737 13.4143L93.8123 30.8361C93.8374 40.4294 93.8123 48.5068 93.737 48.7783L93.6115 49.2987H85.3797H77.1479L76.7213 48.6425C76.4954 48.2805 75.9182 47.6922 75.4664 47.3528C74.6633 46.742 74.6633 46.742 74.5378 44.1852L74.4124 41.6285L70.6478 44.5699C65.7037 48.4389 66.1555 47.9637 66.5068 48.9366C66.7076 49.5249 67.1593 49.9774 68.2134 50.5883C71.4007 52.5115 71.9278 55.928 69.6439 60.159C69.393 60.6568 67.9875 61.9012 65.9798 63.4171C64.1979 64.7973 62.7423 66.0191 62.7423 66.1774C62.7423 67.1956 68.0126 66.7431 70.7231 65.4987C72.1536 64.8199 73.9857 63.4623 75.1904 62.1727C76.646 60.5889 77.4993 58.9146 78.1518 56.2447L78.3024 55.6339H89.069H99.8104L99.9861 30.0216C100.061 15.9484 100.112 4.40926 100.087 4.38663C100.036 4.36401 99.3336 4.9749 98.4803 5.74417Z" fill="black"/>
<path d="M104.905 18.7313C104.905 26.6729 104.98 38.212 105.081 44.3888L105.231 55.6338H114.116H123L122.498 55.0003C121.695 53.9595 120.089 50.9276 119.336 49.0045L118.633 47.2623L117.303 48.5972C116.199 49.6832 115.722 49.9774 114.818 50.1584C113.313 50.4525 112.535 50.2715 111.807 49.4796L111.179 48.8008V31.4469C111.179 12.4187 111.129 12.9617 112.685 10.7444C113.112 10.1561 113.438 9.63572 113.388 9.6131C113.338 9.56784 112.76 9.36422 112.108 9.16058C110.401 8.59494 107.49 6.78488 106.085 5.42734L104.905 4.29605V18.7313Z" fill="black"/>
<path d="M67.3601 8.21044C65.6284 8.91183 64.8755 10.6766 65.6535 12.1021C66.306 13.2786 67.2597 13.8442 68.5648 13.8442C70.4972 13.8442 71.8525 12.5772 71.8274 10.7671C71.8023 8.75345 69.393 7.37329 67.3601 8.21044Z" fill="black"/>
<path d="M78.1518 8.21044C74.9143 9.52273 75.868 13.8442 79.4066 13.8442C81.3391 13.8442 82.6441 12.6903 82.6441 10.9481C82.6441 8.7987 80.2599 7.35066 78.1518 8.21044Z" fill="black"/>
<path d="M42.0624 15.1113C41.686 15.4507 40.4311 16.1747 39.2767 16.7177C36.9176 17.7811 35.6627 18.8672 34.7341 20.6546C34.2071 21.6501 33.9812 22.4194 33.4793 24.7951L33.3789 25.3155H19.952H6.5252V24.7951C6.55029 24.0711 7.35339 22.5778 8.25688 21.6501C8.68353 21.1976 9.03489 20.7904 9.03489 20.7225C9.03489 20.6772 8.65843 20.5415 8.18159 20.4736C6.85146 20.2473 4.34176 19.0256 3.61395 18.2337C2.76066 17.306 1.78188 16.7177 1.07916 16.7177H0.501934V23.5055V30.2932H20.8304H41.159V27.1708C41.159 23.6638 41.2844 23.3697 42.9659 23.1434C43.6435 23.0303 43.9698 23.1208 44.6223 23.6186L45.4254 24.2295V28.732V33.2345H22.9637H0.476837L0.552128 36.108L0.627419 39.0041L45.1243 39.0719L89.596 39.1172V28.2342V17.3739L87.5632 19.2971C86.4338 20.3605 84.8025 21.718 83.9241 22.3063C83.0457 22.8946 82.3179 23.4602 82.3179 23.5507C82.3179 23.6638 82.5689 24.1842 82.8449 24.682C84.8778 28.2568 84.8527 31.6733 82.7696 33.3929C81.5901 34.3884 80.2098 34.5242 78.8796 33.7775C78.3024 33.4608 78.3024 33.4381 78.3024 26.8541V20.27L77.5746 21.175C76.5205 22.4873 74.3873 24.0711 72.4799 24.9987C71.5262 25.4286 70.7733 25.8359 70.7733 25.8812C70.7733 25.9264 71.1247 26.4242 71.5262 26.9898C73.6093 29.7501 73.534 32.239 71.3505 33.5739C70.2714 34.23 69.3177 34.2979 68.2636 33.8001L67.5107 33.4381V27.6233L67.4856 21.8085L66.7578 22.623C66.3563 23.0756 64.5493 24.6594 62.7674 26.1753L59.5299 28.8904L60.1071 29.3881C60.7596 29.9312 61.2365 31.2208 61.2365 32.42V33.2345H56.719H52.2016V28.8225C52.2016 26.4242 52.0761 23.8901 51.9255 23.2339C51.273 20.4962 49.2653 18.3015 46.0528 16.8309C44.9988 16.3557 43.8192 15.6317 43.4428 15.2018L42.7652 14.4552L42.0624 15.1113Z" fill="black"/>
<path d="M11.7955 49.1854V55.2039L12.4983 55.136L13.1759 55.0681V49.1854V43.3027L12.4983 43.2349L11.7955 43.167V49.1854Z" fill="black"/>
<path d="M41.9118 49.1856V55.1814H42.5142H43.1416L43.2169 51.7875C43.2922 48.4842 43.3173 48.3937 43.9447 47.8054C44.7478 47.104 46.3289 46.8551 47.4583 47.2624C48.688 47.7375 48.939 48.5747 48.939 52.1269V55.1814H49.5664H50.1938V51.9459C50.1687 47.1493 49.4409 46.018 46.2787 46.018C45.049 46.018 44.547 46.1311 43.9447 46.5384L43.1667 47.0588V45.1129C43.1667 43.2124 43.1667 43.1898 42.5393 43.1898H41.9118V49.1856Z" fill="black"/>
<path d="M60.4836 45.226C60.4836 46.3347 60.3832 47.2624 60.2828 47.2624C60.1573 47.2624 59.8561 47.0587 59.6052 46.8098C58.4758 45.7012 55.414 45.6333 53.6823 46.7193C51.7247 47.9411 50.9216 50.6336 51.9255 52.5794C52.4776 53.6428 53.7827 54.8193 54.7866 55.1587C56.3426 55.7017 58.8773 55.3171 59.7055 54.4347C60.1824 53.8917 60.4836 53.9596 60.4836 54.6157C60.4836 55.0682 60.609 55.1814 61.111 55.1814H61.7384V49.1855V43.1897H61.111C60.4836 43.1897 60.4836 43.2124 60.4836 45.226ZM59.0028 47.8506C60.609 49.2082 60.9353 51.0861 59.831 52.6247C58.7519 54.0953 57.4468 54.5705 55.5395 54.1858C53.8831 53.8464 52.4776 51.5839 52.8541 49.8417C53.0298 48.9593 54.2344 47.5791 55.0626 47.2397C55.3638 47.1266 56.192 47.0814 56.9198 47.104C57.9739 47.1719 58.4005 47.3302 59.0028 47.8506Z" fill="black"/>
<path d="M3.2626 46.1538C1.20465 46.9005 0.0250969 48.5521 0 50.7242C0 53.4619 2.10814 55.4077 5.14487 55.4077C6.24913 55.4077 8.05611 54.7742 8.40747 54.2764C8.68353 53.8692 9.03489 54.0502 9.03489 54.6158C9.03489 55.0683 9.16037 55.1815 9.66231 55.1815H10.2897V50.6563V46.1312H9.66231C9.16037 46.1312 9.03489 46.2443 9.03489 46.6968C9.03489 47.2851 8.68353 47.4435 8.38237 47.0136C7.80514 46.1538 4.69312 45.6334 3.2626 46.1538ZM7.02714 47.5566C8.20669 48.258 8.83411 49.3214 8.83411 50.6337C8.83411 54.4348 3.68925 55.7471 1.73169 52.4664C0.778004 50.8826 1.45562 48.439 3.08692 47.5113C4.19118 46.8552 5.94797 46.8778 7.02714 47.5566Z" fill="black"/>
<path d="M22.7629 46.3347C22.0351 46.6741 21.8343 46.6967 21.8343 46.4479C21.8343 46.2669 21.5834 46.1311 21.2069 46.1311H20.5795V50.6563V55.1814H21.2069H21.8343V52.0138C21.8343 48.3711 22.0853 47.5565 23.3401 47.3303C23.9676 47.2398 24.093 47.104 24.093 46.561C24.093 45.7917 23.9927 45.7691 22.7629 46.3347Z" fill="black"/>
<path d="M36.1396 46.2895C35.2612 46.8326 34.9349 47.2625 34.7341 48.077C34.4832 49.2761 35.1859 50.1359 36.9678 50.8599C38.7245 51.584 39.2265 51.9912 39.2265 52.8058C39.2265 54.2312 37.1434 54.8194 36.1647 53.6882C35.8635 53.3488 35.6376 52.9415 35.6376 52.7831C35.6376 52.6021 35.3616 52.4664 35.0102 52.4664C34.2573 52.4664 34.182 53.032 34.7592 54.0502C35.2361 54.8647 36.3152 55.4077 37.5199 55.4077C39.3269 55.4077 40.657 54.2538 40.657 52.6926C40.657 51.2672 39.7535 50.4074 37.6454 49.8644C36.6917 49.6155 36.1396 49.0725 36.1396 48.3937C36.1396 47.6697 36.8423 47.0362 37.5952 47.0362C38.1473 47.0362 39.1512 47.7602 39.1512 48.1675C39.1512 48.2806 39.4273 48.3937 39.7786 48.3937C40.2555 48.3937 40.406 48.2806 40.406 47.9186C40.406 46.3122 37.7458 45.294 36.1396 46.2895Z" fill="black"/>
<path d="M24.8962 49.5701C24.9714 53.4391 25.1722 54.0274 26.5776 54.8872C27.707 55.5659 29.8904 55.6112 31.07 54.9551C31.7225 54.593 31.8731 54.5704 31.8731 54.8419C31.8731 55.0682 32.1241 55.1813 32.626 55.1813H33.3789V50.6562V46.131H32.626H31.8731V49.4344V52.7377L31.0198 53.507C30.292 54.1632 29.9908 54.2763 28.9368 54.2763C26.5525 54.2763 26.1008 53.4618 26.1008 49.0045V46.131H25.4483H24.8209L24.8962 49.5701Z" fill="black"/>
<path d="M14.8072 50.543C14.8072 51.1086 14.8323 51.1086 16.9655 51.1086C19.0486 51.1086 19.0988 51.086 19.0235 50.5882C18.9482 50.1357 18.7976 50.0905 16.8902 50.0226C14.8072 49.9547 14.8072 49.9547 14.8072 50.543Z" fill="black"/>
<path d="M12.8496 59.2991C12.3477 59.7517 12.4983 60.3852 13.1759 60.6567C13.5272 60.7924 13.8033 61.0413 13.8033 61.2223C13.8033 61.607 13.1257 61.607 12.9751 61.2223C12.9249 61.0866 12.7743 61.0413 12.6488 61.1318C12.3728 61.3581 12.8747 62.0595 13.3516 62.15C13.8535 62.2405 14.5562 61.607 14.5562 61.064C14.5562 60.7924 14.23 60.4757 13.7782 60.2494C13.1759 59.9779 13.0755 59.8195 13.2763 59.6385C13.5021 59.4349 13.6276 59.4575 13.8033 59.7064C14.0794 60.1137 14.4307 59.8422 14.23 59.367C14.0543 58.9598 13.2763 58.9145 12.8496 59.2991Z" fill="black"/>
<path d="M19.2493 59.4349C18.6721 60.0006 18.7223 61.1997 19.3246 61.7428C19.8768 62.2405 20.6046 62.331 21.3575 61.969C22.1606 61.5618 21.9096 61.2676 20.8555 61.426C20.0273 61.5391 19.8266 61.4939 19.6007 61.1092C19.1239 60.2947 20.0273 59.2539 20.8555 59.7291C21.0312 59.8422 21.4328 59.9327 21.6837 59.9327C22.1355 59.9327 22.1355 59.9101 21.7088 59.4802C21.1316 58.9145 19.8015 58.8919 19.2493 59.4349Z" fill="black"/>
<path d="M26.3518 60.6115C26.3518 61.8107 26.4271 62.2179 26.678 62.1501C26.8286 62.0822 27.0043 61.7654 27.0545 61.4487C27.1047 61.0188 27.2803 60.8378 27.6317 60.8378C28.0082 60.8378 28.1086 60.9962 28.1086 61.5392C28.1086 61.9917 28.2089 62.1953 28.4348 62.1274C28.6356 62.0822 28.736 61.5618 28.736 60.6115C28.736 59.6612 28.6356 59.1409 28.4348 59.073C28.2089 59.0277 28.1086 59.2314 28.1086 59.6839C28.1086 60.2269 28.0082 60.3853 27.6317 60.3853C27.2803 60.3853 27.1047 60.2043 27.0545 59.7744C27.0043 59.4576 26.8286 59.1409 26.678 59.073C26.4271 59.0051 26.3518 59.4124 26.3518 60.6115Z" fill="black"/>
<path d="M33.6299 59.4802C33.3538 59.7291 33.1279 60.1816 33.1279 60.4984C33.1279 61.1998 34.1569 62.1953 34.8847 62.1953C35.5372 62.1953 36.6415 61.2224 36.6415 60.6568C36.6415 59.3218 34.6588 58.5526 33.6299 59.4802ZM35.5121 59.8422C36.0141 60.2948 35.9137 61.0414 35.3365 61.3808C34.3326 61.9238 33.3287 60.3853 34.2824 59.7744C34.8596 59.3897 35.0102 59.4124 35.5121 59.8422Z" fill="black"/>
<path d="M41.1589 59.6386C40.5315 60.3626 40.657 61.1998 41.4601 61.788C42.6146 62.693 44.1706 61.9464 44.1706 60.521C44.1706 59.0503 42.1879 58.4847 41.1589 59.6386ZM43.4428 60.1816C43.7941 60.7925 43.2922 61.5165 42.5142 61.5165C42.0875 61.5165 41.8115 61.3355 41.6107 60.9282C41.3346 60.4079 41.3597 60.2721 41.8617 59.9101C42.5142 59.4576 43.0663 59.5481 43.4428 60.1816Z" fill="black"/>
<path d="M48.688 60.6342V62.218L49.5162 62.1501C50.4448 62.0823 50.5954 61.675 49.7672 61.5619C49.2402 61.494 49.19 61.3582 49.19 60.2496C49.19 59.5708 49.0896 59.0278 48.939 59.0278C48.7884 59.0278 48.688 59.7066 48.688 60.6342Z" fill="black"/>
</svg>
