<svg width="144" height="145" viewBox="0 0 144 145" fill="none" xmlns="http://www.w3.org/2000/svg">
<path d="M82.1566 38.4184C100.911 44.004 111.587 63.7358 106.002 82.4907C100.416 101.246 80.6841 111.921 61.9293 106.336C43.1744 100.75 32.4986 81.0183 38.0842 62.2634C43.6698 43.5085 63.4017 32.8327 82.1566 38.4184Z" fill="#FFCAD7" stroke="#FF668A" stroke-width="4"/>
<path d="M52.7681 65.7338L66.7166 91.5146C67.8072 93.5304 70.3887 94.2458 72.4893 93.1092L89.2733 84.0284C91.374 82.8918 92.2564 80.4669 91.2576 78.6208L78.6293 55.2803C78.0668 54.2405 76.987 53.563 75.7302 53.4201L75.6728 53.314C74.5937 51.3194 72.0122 50.604 69.9115 51.7405L54.5916 60.0293C52.491 61.1658 51.6774 63.7181 52.7681 65.7338ZM53.9775 65.0795C53.2543 63.7427 53.8358 62.0291 55.2575 61.26L70.5774 52.9712C71.999 52.202 73.7516 52.6528 74.4748 53.9896L74.7159 54.4351C74.8307 54.6473 75.0728 54.7906 75.3212 54.7934C76.2607 54.8062 77.041 55.2344 77.4313 55.9559L90.0596 79.2964C90.7025 80.4847 90.0521 82.0709 88.6304 82.8401L71.8464 91.921C70.4248 92.6902 68.6722 92.2394 67.949 90.9026L53.9775 65.0795Z" fill="#FF668A"/>
<path d="M57.924 65.2758C58.076 65.3033 58.2589 65.2866 58.3863 65.2177L61.3781 63.599L66.8886 73.784C67.0149 74.0174 67.2897 74.1704 67.5478 74.1405C67.6557 74.137 67.7193 74.1026 67.8042 74.0567C67.9527 73.9763 68.0668 73.8323 68.1367 73.6573L69.3645 69.8935L73.3256 70.8774C73.5872 70.9553 73.8647 70.8599 74.0407 70.6276C74.1955 70.4067 74.2293 70.1141 74.103 69.8807L68.5925 59.6957L74.5125 56.4927C74.7459 56.3665 74.8989 56.0916 74.869 55.8335C74.854 55.7045 74.7061 54.4679 73.7572 53.8292C73.3383 53.5621 72.6172 53.2939 71.5591 53.6196C71.4839 53.6328 71.4627 53.6443 71.4203 53.6672L56.5035 61.7379C56.4611 61.7608 56.4398 61.7723 56.3974 61.7953C56.2816 61.8854 55.293 62.6945 55.5418 63.712C55.817 64.8797 57.4025 65.1739 57.924 65.2758ZM57.2215 62.9129L72.011 54.9111C72.4176 54.8009 72.7526 54.8116 72.9735 54.9664C73.1829 55.1 73.2977 55.3122 73.3701 55.5473L67.3227 58.8192C66.9832 59.0029 66.8566 59.428 67.0403 59.7675L72.1261 69.1673L69.0788 68.4022C68.9153 68.3535 68.7438 68.3914 68.5953 68.4718C68.4468 68.5522 68.3327 68.6962 68.2628 68.8712L67.3404 71.7292L62.2546 62.3293C62.071 61.9898 61.6459 61.8632 61.3064 62.0469L57.9326 63.8722C56.9975 63.665 56.881 63.3989 56.881 63.3989C56.8678 63.3237 57.0438 63.0913 57.2215 62.9129Z" fill="#FF668A"/>
<path d="M66.1035 66.8575L66.4027 67.7654C66.4389 67.883 66.5502 67.9874 66.6908 67.9936C66.7774 68.0016 66.8313 67.9999 66.895 67.9654C66.9374 67.9425 66.9896 67.8868 67.0205 67.8426L67.5451 67.0377L68.5058 67.039C68.6464 67.0453 68.7622 66.9552 68.8126 66.8456C68.8631 66.736 68.8578 66.5743 68.7792 66.4796L68.183 65.7325L68.4556 64.8169C68.4946 64.6861 68.4584 64.5685 68.3683 64.4527C68.2685 64.3696 68.1377 64.3306 67.9989 64.3783L67.1025 64.6987L66.3073 64.1415C66.2074 64.0583 66.0669 64.0521 65.9396 64.121C65.8335 64.1784 65.7618 64.2994 65.7556 64.44L65.7869 65.4105L65.0283 65.9855C64.9337 66.0641 64.8735 66.2064 64.8884 66.3355C64.9034 66.4645 65.0147 66.5689 65.1455 66.6078L66.1035 66.8575ZM66.4169 65.8651C66.5115 65.7865 66.562 65.6769 66.5585 65.5691L66.5445 65.1377L66.898 65.3854C66.9863 65.4473 67.1056 65.465 67.2232 65.4288L67.6396 65.2859L67.513 65.7109C67.4838 65.809 67.4987 65.9381 67.5774 66.0327L67.8477 66.3802L67.3721 66.3632C67.3182 66.3649 67.2643 66.3667 67.2007 66.4011C67.1582 66.4241 67.106 66.4797 67.0751 66.5239L66.8389 66.8986L66.6959 66.4822C66.6597 66.3646 66.5714 66.3027 66.4618 66.2523L66.0367 66.1257L66.4169 65.8651Z" fill="#FF668A"/>
</svg>
