<svg width="151" height="151" viewBox="0 0 151 151" fill="none" xmlns="http://www.w3.org/2000/svg">
<path d="M111.085 66.1655C116.127 85.8057 104.342 106.004 84.7636 111.28C65.1851 116.556 45.2266 104.912 40.1849 85.2716C35.1433 65.6315 46.9277 45.4329 66.5062 40.1569C86.0847 34.8809 106.043 46.5254 111.085 66.1655Z" fill="#B0EFFF" stroke="#00BDED" stroke-width="4"/>
<path d="M73.5659 98.4214C73.4273 98.7533 73.0338 98.909 72.7018 98.7704L63.2595 95.0502C62.9071 94.8996 62.7395 94.5266 62.8781 94.1947L63.222 93.3221C63.3606 92.9902 63.7542 92.8346 64.0861 92.9732L73.5164 96.7139C73.8688 96.8645 74.0365 97.2375 73.8979 97.5694L73.5659 98.4214Z" fill="#00BDED"/>
<path d="M71.3553 100.984C71.2167 101.316 70.8847 101.508 70.6059 101.373L63.0027 98.3677C62.7119 98.253 62.5973 97.8835 62.7359 97.5516L63.0799 96.679C63.2185 96.3471 63.5504 96.1555 63.8293 96.2907L71.4324 99.2956C71.7232 99.4103 71.8378 99.7798 71.6992 100.112L71.3553 100.984Z" fill="#00BDED"/>
<path d="M68.4756 101.533C68.041 102.656 66.7594 103.201 65.6491 102.746C64.5267 102.311 63.9811 101.03 64.4362 99.9195" fill="#00BDED"/>
<path d="M75.3044 95.5832L63.7441 91.0125C63.0067 90.7199 62.7056 89.7737 63.0736 88.8601C63.2156 88.4751 63.4808 88.1621 63.7717 87.9465C64.6 85.0175 63.7499 81.8522 63.1221 79.5321C62.8621 78.6099 62.6689 77.8092 62.5834 77.1539C62.1593 74.4849 62.4845 71.7577 63.4685 69.2222C64.1958 67.3624 65.2721 65.7064 66.6323 64.271C67.9567 62.8972 69.5086 61.7938 71.2315 61.0103C72.9545 60.2268 74.7921 59.8129 76.6501 59.7412C78.5937 59.6643 80.4894 59.9998 82.2961 60.7237C84.1028 61.4475 85.7178 62.4999 87.0881 63.8773C88.4089 65.1982 89.4473 66.7672 90.1863 68.5192C90.9253 70.2712 91.2947 72.1379 91.31 74.0456C91.3423 76.0183 90.9709 77.9755 90.2436 79.8352C89.785 80.9986 89.1793 82.1312 88.4538 83.1389C87.9045 83.8917 87.3056 84.588 86.6246 85.2364L86.6537 85.2808L85.9796 85.8232C85.8102 85.972 85.6528 86.1003 85.4748 86.2166C84.9581 86.6306 84.2583 87.0754 83.449 87.5664C81.442 88.7896 78.7352 90.4575 77.2876 93.0803C77.3851 93.3848 77.3987 93.8331 77.1575 94.4353C76.7228 95.5576 75.9067 95.8245 75.3044 95.5832ZM64.4285 89.6506L75.6245 94.0913C75.6604 94.0297 75.6964 93.9681 75.7237 93.874C75.7751 93.7388 75.8025 93.6447 75.8059 93.5917L75.4517 93.3025L75.7101 92.7653C77.293 89.5335 80.3762 87.6449 82.6176 86.2558C83.3824 85.7939 84.0377 85.3782 84.4655 85.0223L84.4775 85.0018C84.6349 84.8735 84.7923 84.7452 84.9497 84.6169C86.6402 83.1815 87.9423 81.327 88.7689 79.25C89.4414 77.5785 89.746 75.8299 89.7325 74.0608C89.7155 72.3448 89.3649 70.6818 88.7097 69.1162C88.0546 67.5507 87.1325 66.1596 85.952 64.9756C84.7425 63.7471 83.2917 62.7905 81.6818 62.154C80.0718 61.5174 78.3763 61.2161 76.6363 61.2742C74.9493 61.3357 73.3274 61.7102 71.7909 62.4099C70.2339 63.0976 68.86 64.0847 67.6605 65.3387C66.4166 66.6218 65.4686 68.1051 64.8167 69.7886C63.9234 72.0743 63.6358 74.5483 64.0154 76.9162L64.024 76.9487C64.1044 77.5185 64.3011 78.2662 64.532 79.1439C65.2281 81.724 66.1808 85.2794 65.0856 88.7131L64.9556 89.0775L64.6065 89.2041C64.574 89.2126 64.4936 89.3033 64.4303 89.459C64.4474 89.524 64.432 89.5976 64.4285 89.6506Z" fill="#00BDED"/>
<path d="M83.7198 57.1512C83.3143 56.9971 83.1296 56.5591 83.2836 56.1537L85.5612 50.4103C85.7152 50.0048 86.1533 49.82 86.5587 49.9741C86.9642 50.1281 87.149 50.5661 86.9949 50.9716L84.7173 56.7149C84.5427 57.1084 84.1047 57.2932 83.7198 57.1512Z" fill="#00BDED"/>
<path d="M99.3985 82.7273L93.6551 80.4496C93.2496 80.2956 93.0648 79.8576 93.2188 79.4522C93.3729 79.0467 93.8109 78.8619 94.2163 79.0159L99.9597 81.2936C100.365 81.4476 100.55 81.8856 100.396 82.2911C100.221 82.6846 99.7834 82.8693 99.3985 82.7273Z" fill="#00BDED"/>
<path d="M60.543 67.35L54.7996 65.0723C54.3941 64.9183 54.2094 64.4803 54.3634 64.0748C54.5174 63.6694 54.9554 63.4846 55.3609 63.6386L61.1043 65.9163C61.5098 66.0703 61.6945 66.5083 61.5405 66.9138C61.3865 67.3192 60.9485 67.504 60.543 67.35Z" fill="#00BDED"/>
<path d="M94.0736 65.0631C93.9179 64.9998 93.7657 64.8834 93.6699 64.7175C93.4697 64.353 93.6066 63.8825 93.9916 63.6944L99.4513 60.7982C99.8158 60.598 100.286 60.7349 100.474 61.1199C100.675 61.4844 100.538 61.9548 100.153 62.143L94.693 65.0392C94.527 65.135 94.2704 65.1504 94.0736 65.0631Z" fill="#00BDED"/>
<path d="M70.6006 55.7714C70.4038 55.6841 70.2225 55.5233 70.1506 55.3162L68.1544 49.4459C68.0312 49.0438 68.2297 48.6093 68.6318 48.4861C69.0339 48.363 69.4685 48.5615 69.5916 48.9635L71.5998 54.8133C71.723 55.2154 71.5245 55.65 71.1224 55.7731C70.9479 55.8364 70.7563 55.8347 70.6006 55.7714Z" fill="#00BDED"/>
</svg>
